<svg width="40" height="40" viewBox="0 0 40 40" fill="none" xmlns="http://www.w3.org/2000/svg">
  <rect width="40" height="40" rx="8" fill="#f59e0b"/>
  <path d="M20 8C13.37 8 8 13.37 8 20C8 26.63 13.37 32 20 32C26.63 32 32 26.63 32 20C32 13.37 26.63 8 20 8ZM20 14C21.93 14 23.5 15.57 23.5 17.5C23.5 19.43 21.93 21 20 21C18.07 21 16.5 19.43 16.5 17.5C16.5 15.57 18.07 14 20 14ZM20 29.2C17.5 29.2 15.29 28.02 14 26.14C14.03 24.19 18 23.1 20 23.1C21.99 23.1 25.97 24.19 26 26.14C24.71 28.02 22.5 29.2 20 29.2Z" fill="#000000"/>
</svg>
